<?xml version="1.0" encoding="utf-8"?>
<svg version="1.1" id="Layer_1" xmlns="http://www.w3.org/2000/svg" xmlns:xlink="http://www.w3.org/1999/xlink" x="0px" y="0px"
	 viewBox="0 0 500 500" style="enable-background:new 0 0 500 500;" xml:space="preserve">
<style type="text/css">
	.st0{fill:#F6F6F6;}
	.st1{fill:#171717;}
</style>
<path class="st0" d="M399,499H101C46.1,499,1,454,1,399V101C1,46.1,46,1,101,1h298c54.9,0,100,45,100,100v298
	C499,454,454,499,399,499z"/>
<path class="st1" d="M196.5,390.2h-53.2c-18.4,0-33.4-15-33.4-33.4v-53.2c0-18.4,15-33.4,33.4-33.4h53.2c18.4,0,33.4,15,33.4,33.4
	v53.2C229.9,375.2,214.8,390.2,196.5,390.2z"/>
<path class="st1" d="M356.5,390.2h-53.2c-18.4,0-33.4-15-33.4-33.4v-53.2c0-18.4,15-33.4,33.4-33.4h53.2c18.4,0,33.4,15,33.4,33.4
	v53.2C389.9,375.2,374.9,390.2,356.5,390.2z"/>
<path class="st1" d="M391.1,193.7l-37.6,37.6c-13,13-34.3,13-47.3,0l-37.6-37.6c-13-13-13-34.3,0-47.3l37.6-37.6
	c13-13,34.3-13,47.3,0l37.6,37.6C404.1,159.4,404.1,180.7,391.1,193.7z"/>
<path class="st1" d="M196.5,230.1h-53.2c-18.4,0-33.4-15-33.4-33.4v-53.2c0-18.4,15-33.4,33.4-33.4h53.2c18.4,0,33.4,15,33.4,33.4
	v53.2C229.9,215,214.8,230.1,196.5,230.1z"/>
</svg>
