<?xml version="1.0" encoding="utf-8"?>
<svg version="1.1" id="Layer_1" xmlns="http://www.w3.org/2000/svg" xmlns:xlink="http://www.w3.org/1999/xlink" x="0px" y="0px"
	 viewBox="0 0 500 500" style="enable-background:new 0 0 500 500;" xml:space="preserve">
<style type="text/css">
	.st0{fill:#F6F6F6;}
	.st1{fill:#171717;}
</style>
<path class="st0" d="M399,499H101C46.1,499,1,454,1,399V101C1,46.1,46,1,101,1h298c54.9,0,100,45,100,100v298
	C499,454,454,499,399,499z"/>
<g>
	<path class="st1" d="M382.8,338.5c-8.2-0.1-14.8-6.7-14.8-14.8c0-8.1-6.6-14.8-14.8-14.8c-8.2,0-14.8,6.6-14.8,14.8
		c0,8.9-5.9,14.8-14.8,14.8c-8.1,0-14.8,6.6-14.8,14.8c0,8.2,6.6,14.8,14.8,14.8c8.9,0,14.8,5.9,14.8,14.8c0,8.1,6.6,14.8,14.8,14.8
		c8.2,0,14.8-6.6,14.8-14.8c0-8.9,5.9-14.8,14.8-14.8c8.1,0,14.8-6.6,14.8-14.8C397.6,345.1,391,338.5,382.8,338.5z"/>
	<path class="st1" d="M220.4,286.7c-20.2,0-36.8-16.5-36.8-36.8c0-8.1-6.6-14.8-14.8-14.8c-8.2,0-14.8,6.6-14.8,14.8
		c0,20.7-16.2,36.8-36.8,36.8c-8.1,0-14.8,6.6-14.8,14.8c0,8.1,6.6,14.8,14.8,14.8c20.7,0,36.8,16.3,36.8,36.8
		c0,8.1,6.6,14.8,14.8,14.8c8.2,0,14.8-6.6,14.8-14.8c0-20.7,16.2-36.8,36.8-36.8c8.1,0,14.8-6.6,14.8-14.8
		C235.2,293.4,228.6,286.7,220.4,286.7z"/>
	<path class="st1" d="M316.3,279.3c0-36.8,29.5-66.3,66.3-66.3c8.1,0,14.8-6.6,14.8-14.8c0-8.1-6.6-14.8-14.8-14.8
		c-36.8,0.2-66.3-29.4-66.3-66.3c0-8.1-6.6-14.8-14.8-14.8c-8.1,0-14.8,6.6-14.8,14.8c0,36.8-29.5,66.3-66.3,66.3
		c-8.1,0-14.8,6.6-14.8,14.8c0,8.1,6.6,14.8,14.8,14.8c36.8,0,66.3,29.5,66.3,66.3c0,8.1,6.6,14.8,14.8,14.8
		C309.6,294.1,316.3,287.5,316.3,279.3z"/>
</g>
</svg>
