<?xml version="1.0" encoding="utf-8"?>
<svg version="1.1" id="Layer_1" xmlns="http://www.w3.org/2000/svg" xmlns:xlink="http://www.w3.org/1999/xlink" x="0px" y="0px"
	 viewBox="0 0 500 500" style="enable-background:new 0 0 500 500;" xml:space="preserve">
<style type="text/css">
	.st0{fill:url(#SVGID_1_);}
	.st1{fill:#FFFFFF;}
	.st2{fill:url(#SVGID_2_);}
	.st3{fill:url(#SVGID_3_);}
</style>
<g>
	
		<linearGradient id="SVGID_1_" gradientUnits="userSpaceOnUse" x1="371.8429" y1="3057.1248" x2="128.0891" y2="2634.9307" gradientTransform="matrix(1 0 0 1 0 -2596)">
		<stop  offset="0" style="stop-color:#D40096"/>
		<stop  offset="1" style="stop-color:#0000FF"/>
	</linearGradient>
	<path class="st0" d="M369.7,450H130.3C86.2,450,50,413.9,50,369.7V130.3C50,86.2,86.1,50,130.3,50h239.3
		c44.1,0,80.3,36.1,80.3,80.3v239.3C450,413.9,413.9,450,369.7,450z"/>
	<g>
		<polygon class="st1" points="313.2,188.1 313.2,253.7 186.8,180.7 130,213.5 130,279.1 186.8,311.9 186.8,246.3 313.2,319.3 
			370,286.5 370,220.9 		"/>
		<g>
			<polygon class="st1" points="186.8,180.7 130,213.5 313.2,319.3 370,286.5 			"/>
			
				<linearGradient id="SVGID_2_" gradientUnits="userSpaceOnUse" x1="144.1958" y1="2883.3025" x2="172.6042" y2="2834.0977" gradientTransform="matrix(1 0 0 1 0 -2596)">
				<stop  offset="0" style="stop-color:#FFFFFF"/>
				<stop  offset="0.2292" style="stop-color:#FCFBFE"/>
				<stop  offset="0.4667" style="stop-color:#F3EEFC"/>
				<stop  offset="0.7079" style="stop-color:#E5DAF9"/>
				<stop  offset="0.9504" style="stop-color:#D1BDF5"/>
				<stop  offset="1" style="stop-color:#CCB6F4"/>
			</linearGradient>
			<polygon class="st2" points="186.8,246.3 130,213.5 130,279.1 186.8,311.9 			"/>
			
				<linearGradient id="SVGID_3_" gradientUnits="userSpaceOnUse" x1="327.3958" y1="2857.9023" x2="355.8042" y2="2808.6975" gradientTransform="matrix(1 0 0 1 0 -2596)">
				<stop  offset="0" style="stop-color:#DAB6ED"/>
				<stop  offset="4.957503e-02" style="stop-color:#DDBDEF"/>
				<stop  offset="0.2921" style="stop-color:#ECDAF6"/>
				<stop  offset="0.5333" style="stop-color:#F7EEFB"/>
				<stop  offset="0.7708" style="stop-color:#FDFBFE"/>
				<stop  offset="1" style="stop-color:#FFFFFF"/>
			</linearGradient>
			<polygon class="st3" points="370,220.9 313.2,188.1 313.2,253.7 370,286.5 			"/>
		</g>
	</g>
</g>
</svg>
