<?xml version="1.0" encoding="utf-8"?>
<!-- Generator: Adobe Illustrator 24.3.0, SVG Export Plug-In . SVG Version: 6.00 Build 0)  -->
<svg version="1.1" id="Layer_1" xmlns="http://www.w3.org/2000/svg" xmlns:xlink="http://www.w3.org/1999/xlink" x="0px" y="0px"
	 viewBox="0 0 500 500" style="enable-background:new 0 0 500 500;" xml:space="preserve">
<style type="text/css">
	.st0{fill:url(#SVGID_1_);}
	.st1{fill:#FFFFFF;}
	.st2{fill:url(#SVGID_2_);}
	.st3{fill:url(#SVGID_3_);}
</style>
<linearGradient id="SVGID_1_" gradientUnits="userSpaceOnUse" x1="402.3359" y1="-11.8535" x2="97.6641" y2="515.8535" gradientTransform="matrix(1 0 0 -1 0 502)">
	<stop  offset="0" style="stop-color:#D40096"/>
	<stop  offset="1" style="stop-color:#0000FF"/>
</linearGradient>
<path class="st0" d="M399.6,500H100.4C45.2,500,0,454.8,0,399.6V100.4C0,45.2,45.2,0,100.4,0h299.2C454.8,0,500,45.2,500,100.4
	v299.2C500,454.8,454.8,500,399.6,500z"/>
<g>
	<polygon class="st1" points="329,172.6 329,254.6 171,163.4 100,204.4 100,286.4 171,327.4 171,245.4 329,336.6 400,295.6 
		400,213.6 	"/>
	<g>
		<polygon class="st1" points="171,163.4 100,204.4 329,336.6 400,295.6 		"/>
		
			<linearGradient id="SVGID_2_" gradientUnits="userSpaceOnUse" x1="117.7447" y1="205.3469" x2="153.2553" y2="266.8531" gradientTransform="matrix(1 0 0 -1 0 502)">
			<stop  offset="0" style="stop-color:#FFFFFF"/>
			<stop  offset="0.2292" style="stop-color:#FCFBFE"/>
			<stop  offset="0.4667" style="stop-color:#F3EEFC"/>
			<stop  offset="0.7079" style="stop-color:#E5DAF9"/>
			<stop  offset="0.9504" style="stop-color:#D1BDF5"/>
			<stop  offset="1" style="stop-color:#CCB6F4"/>
		</linearGradient>
		<polygon class="st2" points="171,245.4 100,204.4 100,286.4 171,327.4 		"/>
		
			<linearGradient id="SVGID_3_" gradientUnits="userSpaceOnUse" x1="346.7447" y1="237.1469" x2="382.2553" y2="298.6531" gradientTransform="matrix(1 0 0 -1 0 502)">
			<stop  offset="0" style="stop-color:#DAB6ED"/>
			<stop  offset="4.957503e-02" style="stop-color:#DDBDEF"/>
			<stop  offset="0.2921" style="stop-color:#ECDAF6"/>
			<stop  offset="0.5333" style="stop-color:#F7EEFB"/>
			<stop  offset="0.7708" style="stop-color:#FDFBFE"/>
			<stop  offset="1" style="stop-color:#FFFFFF"/>
		</linearGradient>
		<polygon class="st3" points="400,213.6 329,172.6 329,254.6 400,295.6 		"/>
	</g>
</g>
</svg>
